<?xml version="1.0" encoding="utf-8"?>
<!-- Generator: Adobe Illustrator 27.3.1, SVG Export Plug-In . SVG Version: 6.00 Build 0)  -->
<svg version="1.1" xmlns="http://www.w3.org/2000/svg" xmlns:xlink="http://www.w3.org/1999/xlink" x="0px" y="0px"
	 viewBox="0 0 500 500" style="enable-background:new 0 0 500 500;" xml:space="preserve">
<style type="text/css">
	.st0{fill:none;}
	.st1{fill:#2C3B8F;}
	.st2{fill:#FFFFFF;}
</style>
<g id="Слой_1">
	<path class="st0" d="M0,500"/>
	<ellipse class="st1" cx="250.25" cy="250.25" rx="249.43" ry="245.75"/>
</g>
<g id="Слой_2">
	<g>
		<path class="st2" d="M425.23,283.74c-3.09,7.1-6.62,13.76-10.56,19.75c-0.82,1.25-1.65,2.47-2.51,3.65
			c-23.81,32.99-89.15,81.79-147.5,78.69c-23.78-1.26-85.26-3.98-128.22-52.53c-39.88-45.07-71.68-149.47-71.68-149.47l55.56-0.01
			h65.76c-6.23,26.23-3.09,54.78,10.98,80.24c30,54.31,98.34,74,152.64,44c37.09-20.49,58.03-58.86,58.03-98.42
			c0-8.33-0.92-16.71-2.83-25l22.2,0.1C437.12,207.96,439.44,251.08,425.23,283.74z"/>
		<path class="st2" d="M285.12,385.25"/>
		<path class="st2" d="M238.12,197.36l54.04,107.6c3.43,6.82,13.19,6.75,16.51-0.12l52.03-107.6c2.95-6.11-1.5-13.21-8.29-13.21
			H246.34C239.49,184.02,235.05,191.24,238.12,197.36z"/>
		<path class="st2" d="M299.57,169.84"/>
		<circle class="st2" cx="299.6" cy="151.98" r="37.95"/>
	</g>
</g>
</svg>
